<?xml version="1.0" encoding="UTF-8"?>
<svg id="Layer_2" data-name="Layer 2" xmlns="http://www.w3.org/2000/svg" viewBox="0 0 562.78 705">
  <defs>
    <style>
      .cls-1 {
        fill: none;
        stroke: #010101;
        stroke-linecap: round;
        stroke-linejoin: round;
        stroke-width: 65px;
      }
    </style>
  </defs>
  <g id="Layer_1-2" data-name="Layer 1">
    <path class="cls-1" d="m32.5,316.94h497.78m-355.56,248.89l-106.67,106.67m320-106.67l106.67,106.67m-213.33-355.56V68.06m-142.22,391.11h.36m284.09,0h.36m-277.69,106.67h270.22c39.83,0,59.74,0,74.95-7.75,13.38-6.82,24.26-17.7,31.08-31.08,7.75-15.21,7.75-35.13,7.75-74.95V146.28c0-39.83,0-59.74-7.75-74.95-6.82-13.38-17.7-24.26-31.08-31.08-15.21-7.75-35.13-7.75-74.95-7.75H146.28c-39.83,0-59.74,0-74.95,7.75-13.38,6.82-24.26,17.7-31.08,31.08-7.75,15.21-7.75,35.12-7.75,74.95v305.78c0,39.83,0,59.74,7.75,74.95,6.82,13.38,17.7,24.26,31.08,31.08,15.21,7.75,35.12,7.75,74.95,7.75Z"/>
  </g>
</svg>